<svg xmlns="http://www.w3.org/2000/svg" xmlns:xlink="http://www.w3.org/1999/xlink" width="2000" zoomAndPan="magnify" viewBox="0 0 1500 1499.999933" height="2000" preserveAspectRatio="xMidYMid meet" version="1.0"><defs><g/><clipPath id="21f2c79e7b"><rect x="0" width="1411" y="0" height="479"/></clipPath></defs><g transform="matrix(1, 0, 0, 1, 32, 485)"><g clip-path="url(#21f2c79e7b)"><g fill="#ffffff" fill-opacity="1"><g transform="translate(1.446992, 379.591644)"><g><path d="M 27.359375 -273.53125 L 156.6875 -273.53125 C 186.644531 -273.53125 213.21875 -267.925781 236.40625 -256.71875 C 259.59375 -245.519531 277.566406 -229.628906 290.328125 -209.046875 C 303.085938 -188.472656 309.46875 -164.378906 309.46875 -136.765625 C 309.46875 -109.148438 303.085938 -85.050781 290.328125 -64.46875 C 277.566406 -43.894531 259.59375 -28.003906 236.40625 -16.796875 C 213.21875 -5.597656 186.644531 0 156.6875 0 L 27.359375 0 Z M 153.5625 -61.734375 C 177.007812 -61.734375 195.832031 -68.375 210.03125 -81.65625 C 224.226562 -94.945312 231.328125 -113.316406 231.328125 -136.765625 C 231.328125 -160.210938 224.226562 -178.578125 210.03125 -191.859375 C 195.832031 -205.140625 177.007812 -211.78125 153.5625 -211.78125 L 104.71875 -211.78125 L 104.71875 -61.734375 Z M 153.5625 -61.734375 "/></g></g></g><g fill="#ffffff" fill-opacity="1"><g transform="translate(292.162119, 379.591644)"><g><path d="M 246.953125 -59.78125 L 246.953125 0 L 27.359375 0 L 27.359375 -273.53125 L 241.875 -273.53125 L 241.875 -213.734375 L 103.9375 -213.734375 L 103.9375 -167.625 L 225.46875 -167.625 L 225.46875 -109.796875 L 103.9375 -109.796875 L 103.9375 -59.78125 Z M 246.953125 -59.78125 "/></g></g></g><g fill="#ffffff" fill-opacity="1"><g transform="translate(522.702143, 379.591644)"><g><path d="M 123.484375 5.46875 C 101.335938 5.46875 79.84375 2.730469 59 -2.734375 C 38.164062 -8.203125 21.234375 -15.5 8.203125 -24.625 L 33.609375 -81.671875 C 45.847656 -73.585938 60.039062 -67.070312 76.1875 -62.125 C 92.34375 -57.175781 108.238281 -54.703125 123.875 -54.703125 C 153.5625 -54.703125 168.40625 -62.128906 168.40625 -76.984375 C 168.40625 -84.796875 164.171875 -90.585938 155.703125 -94.359375 C 147.242188 -98.140625 133.632812 -102.113281 114.875 -106.28125 C 94.300781 -110.707031 77.109375 -115.460938 63.296875 -120.546875 C 49.492188 -125.628906 37.640625 -133.769531 27.734375 -144.96875 C 17.835938 -156.164062 12.890625 -171.273438 12.890625 -190.296875 C 12.890625 -206.960938 17.445312 -222.003906 26.5625 -235.421875 C 35.6875 -248.835938 49.300781 -259.453125 67.40625 -267.265625 C 85.507812 -275.085938 107.71875 -279 134.03125 -279 C 152 -279 169.707031 -276.976562 187.15625 -272.9375 C 204.613281 -268.894531 219.988281 -262.96875 233.28125 -255.15625 L 209.4375 -197.71875 C 183.382812 -211.78125 158.117188 -218.8125 133.640625 -218.8125 C 118.265625 -218.8125 107.0625 -216.53125 100.03125 -211.96875 C 93 -207.414062 89.484375 -201.492188 89.484375 -194.203125 C 89.484375 -186.910156 93.648438 -181.441406 101.984375 -177.796875 C 110.316406 -174.148438 123.734375 -170.367188 142.234375 -166.453125 C 163.078125 -162.023438 180.332031 -157.269531 194 -152.1875 C 207.675781 -147.113281 219.53125 -139.039062 229.5625 -127.96875 C 239.59375 -116.894531 244.609375 -101.851562 244.609375 -82.84375 C 244.609375 -66.425781 240.046875 -51.570312 230.921875 -38.28125 C 221.804688 -25 208.128906 -14.382812 189.890625 -6.4375 C 171.660156 1.496094 149.523438 5.46875 123.484375 5.46875 Z M 123.484375 5.46875 "/></g></g></g><g fill="#ffffff" fill-opacity="1"><g transform="translate(743.473547, 379.591644)"><g><path d="M 132.859375 -99.25 L 103.9375 -68.375 L 103.9375 0 L 27.359375 0 L 27.359375 -273.53125 L 103.9375 -273.53125 L 103.9375 -159.8125 L 209.828125 -273.53125 L 295.015625 -273.53125 L 183.265625 -152.390625 L 300.875 0 L 211 0 Z M 132.859375 -99.25 "/></g></g></g><g fill="#000000" fill-opacity="1"><g transform="translate(1005.294786, 379.591644)"><g/></g></g><g fill="#0097b2" fill-opacity="1"><g transform="translate(1086.966115, 379.591644)"><g><path d="M 85.578125 -212.171875 L 1.5625 -212.171875 L 1.5625 -273.53125 L 246.5625 -273.53125 L 246.5625 -212.171875 L 162.9375 -212.171875 L 162.9375 0 L 85.578125 0 Z M 85.578125 -212.171875 "/></g></g></g><g fill="#0097b2" fill-opacity="1"><g transform="translate(1303.048503, 379.591644)"><g><path d="M 27.359375 -273.53125 L 104.71875 -273.53125 L 104.71875 0 L 27.359375 0 Z M 27.359375 -273.53125 "/></g></g></g></g></g><g fill="#ffffff" fill-opacity="1"><g transform="translate(159.64971, 989.390223)"><g><path d="M 6.3125 -53.296875 L 18.65625 -53.296875 L 18.65625 0 L 6.3125 0 Z M 6.3125 -53.296875 "/></g></g></g><g fill="#ffffff" fill-opacity="1"><g transform="translate(245.534511, 989.390223)"><g><path d="M 55.203125 -53.296875 L 55.203125 0 L 45.078125 0 L 18.5 -32.359375 L 18.5 0 L 6.3125 0 L 6.3125 -53.296875 L 16.515625 -53.296875 L 43.015625 -20.9375 L 43.015625 -53.296875 Z M 55.203125 -53.296875 "/></g></g></g><g fill="#ffffff" fill-opacity="1"><g transform="translate(367.964893, 989.390223)"><g><path d="M 18.65625 -43.40625 L 18.65625 -29.3125 L 43.328125 -29.3125 L 43.328125 -19.421875 L 18.65625 -19.421875 L 18.65625 0 L 6.3125 0 L 6.3125 -53.296875 L 46.59375 -53.296875 L 46.59375 -43.40625 Z M 18.65625 -43.40625 "/></g></g></g><g fill="#ffffff" fill-opacity="1"><g transform="translate(477.528193, 989.390223)"><g><path d="M 32.125 0.90625 C 26.59375 0.90625 21.601562 -0.285156 17.15625 -2.671875 C 12.71875 -5.054688 9.242188 -8.34375 6.734375 -12.53125 C 4.222656 -16.71875 2.96875 -21.425781 2.96875 -26.65625 C 2.96875 -31.875 4.222656 -36.578125 6.734375 -40.765625 C 9.242188 -44.960938 12.71875 -48.253906 17.15625 -50.640625 C 21.601562 -53.023438 26.59375 -54.21875 32.125 -54.21875 C 37.664062 -54.21875 42.640625 -53.023438 47.046875 -50.640625 C 51.460938 -48.253906 54.941406 -44.960938 57.484375 -40.765625 C 60.023438 -36.578125 61.296875 -31.875 61.296875 -26.65625 C 61.296875 -21.425781 60.023438 -16.71875 57.484375 -12.53125 C 54.941406 -8.34375 51.460938 -5.054688 47.046875 -2.671875 C 42.640625 -0.285156 37.664062 0.90625 32.125 0.90625 Z M 32.125 -9.59375 C 35.28125 -9.59375 38.125 -10.316406 40.65625 -11.765625 C 43.195312 -13.210938 45.191406 -15.226562 46.640625 -17.8125 C 48.085938 -20.40625 48.8125 -23.351562 48.8125 -26.65625 C 48.8125 -29.945312 48.085938 -32.882812 46.640625 -35.46875 C 45.191406 -38.0625 43.195312 -40.082031 40.65625 -41.53125 C 38.125 -42.976562 35.28125 -43.703125 32.125 -43.703125 C 28.976562 -43.703125 26.132812 -42.976562 23.59375 -41.53125 C 21.0625 -40.082031 19.070312 -38.0625 17.625 -35.46875 C 16.175781 -32.882812 15.453125 -29.945312 15.453125 -26.65625 C 15.453125 -23.351562 16.175781 -20.40625 17.625 -17.8125 C 19.070312 -15.226562 21.0625 -13.210938 23.59375 -11.765625 C 26.132812 -10.316406 28.976562 -9.59375 32.125 -9.59375 Z M 32.125 -9.59375 "/></g></g></g><g fill="#ffffff" fill-opacity="1"><g transform="translate(602.699538, 989.390223)"><g><path d="M 40.28125 0 L 30 -14.84375 L 18.65625 -14.84375 L 18.65625 0 L 6.3125 0 L 6.3125 -53.296875 L 29.390625 -53.296875 C 34.109375 -53.296875 38.207031 -52.507812 41.6875 -50.9375 C 45.164062 -49.363281 47.84375 -47.128906 49.71875 -44.234375 C 51.59375 -41.335938 52.53125 -37.910156 52.53125 -33.953125 C 52.53125 -29.992188 51.578125 -26.582031 49.671875 -23.71875 C 47.773438 -20.851562 45.078125 -18.65625 41.578125 -17.125 L 53.53125 0 Z M 40.046875 -33.953125 C 40.046875 -36.953125 39.082031 -39.25 37.15625 -40.84375 C 35.226562 -42.445312 32.410156 -43.25 28.703125 -43.25 L 18.65625 -43.25 L 18.65625 -24.671875 L 28.703125 -24.671875 C 32.410156 -24.671875 35.226562 -25.484375 37.15625 -27.109375 C 39.082031 -28.734375 40.046875 -31.015625 40.046875 -33.953125 Z M 40.046875 -33.953125 "/></g></g></g><g fill="#ffffff" fill-opacity="1"><g transform="translate(719.57195, 989.390223)"><g><path d="M 54.828125 0 L 54.75 -31.984375 L 39.0625 -5.640625 L 33.5 -5.640625 L 17.890625 -31.296875 L 17.890625 0 L 6.3125 0 L 6.3125 -53.296875 L 16.515625 -53.296875 L 36.46875 -20.171875 L 56.109375 -53.296875 L 66.25 -53.296875 L 66.390625 0 Z M 54.828125 0 "/></g></g></g><g fill="#ffffff" fill-opacity="1"><g transform="translate(853.194391, 989.390223)"><g><path d="M 41.421875 -11.421875 L 16.671875 -11.421875 L 11.953125 0 L -0.6875 0 L 23.078125 -53.296875 L 35.25 -53.296875 L 59.078125 0 L 46.140625 0 Z M 37.53125 -20.78125 L 29.078125 -41.1875 L 20.640625 -20.78125 Z M 32.515625 -68.609375 L 45.296875 -68.609375 L 31.515625 -57.640625 L 22.234375 -57.640625 Z M 32.515625 -68.609375 "/></g></g></g><g fill="#ffffff" fill-opacity="1"><g transform="translate(972.427077, 989.390223)"><g><path d="M 17.359375 -43.25 L 0.296875 -43.25 L 0.296875 -53.296875 L 46.75 -53.296875 L 46.75 -43.25 L 29.6875 -43.25 L 29.6875 0 L 17.359375 0 Z M 17.359375 -43.25 "/></g></g></g><g fill="#ffffff" fill-opacity="1"><g transform="translate(1080.391454, 989.390223)"><g><path d="M 6.3125 -53.296875 L 18.65625 -53.296875 L 18.65625 0 L 6.3125 0 Z M 6.3125 -53.296875 "/></g></g></g><g fill="#ffffff" fill-opacity="1"><g transform="translate(1166.276335, 989.390223)"><g><path d="M 31.828125 0.90625 C 26.398438 0.90625 21.488281 -0.269531 17.09375 -2.625 C 12.695312 -4.988281 9.242188 -8.265625 6.734375 -12.453125 C 4.222656 -16.640625 2.96875 -21.375 2.96875 -26.65625 C 2.96875 -31.925781 4.222656 -36.65625 6.734375 -40.84375 C 9.242188 -45.03125 12.695312 -48.304688 17.09375 -50.671875 C 21.488281 -53.035156 26.425781 -54.21875 31.90625 -54.21875 C 36.519531 -54.21875 40.691406 -53.40625 44.421875 -51.78125 C 48.160156 -50.15625 51.296875 -47.816406 53.828125 -44.765625 L 45.90625 -37.46875 C 42.300781 -41.625 37.835938 -43.703125 32.515625 -43.703125 C 29.210938 -43.703125 26.265625 -42.976562 23.671875 -41.53125 C 21.085938 -40.082031 19.070312 -38.0625 17.625 -35.46875 C 16.175781 -32.882812 15.453125 -29.945312 15.453125 -26.65625 C 15.453125 -23.351562 16.175781 -20.40625 17.625 -17.8125 C 19.070312 -15.226562 21.085938 -13.210938 23.671875 -11.765625 C 26.265625 -10.316406 29.210938 -9.59375 32.515625 -9.59375 C 37.835938 -9.59375 42.300781 -11.695312 45.90625 -15.90625 L 53.828125 -8.609375 C 51.296875 -5.503906 48.148438 -3.140625 44.390625 -1.515625 C 40.628906 0.0976562 36.441406 0.90625 31.828125 0.90625 Z M 31.828125 0.90625 "/></g></g></g><g fill="#ffffff" fill-opacity="1"><g transform="translate(1282.996448, 989.390223)"><g><path d="M 41.421875 -11.421875 L 16.671875 -11.421875 L 11.953125 0 L -0.6875 0 L 23.078125 -53.296875 L 35.25 -53.296875 L 59.078125 0 L 46.140625 0 Z M 37.53125 -20.78125 L 29.078125 -41.1875 L 20.640625 -20.78125 Z M 37.53125 -20.78125 "/></g></g></g></svg>