<svg xmlns="http://www.w3.org/2000/svg" width="64" height="64" viewBox="0 0 24 24" fill="none" stroke="#00f2fe" stroke-width="1.5" stroke-linecap="round" stroke-linejoin="round"><path d="M20.8 10.3l-2.1-.9a7.9 7.9 0 0 0-.5-1.2l1.1-1.9-1.7-1.7-1.9 1.1c-.4-.2-.8-.4-1.2-.5l-.9-2.1H9.6l-.9 2.1c-.4.2-.8.4-1.2.5L5.6 3.1 3.9 4.8l1.1 1.9c-.2.4-.4.8-.5 1.2L2.4 9.9v4.2l2.1.9c.1.4.3.8.5 1.2L3.9 17l1.7 1.7 1.9-1.1c.4.2.8.4 1.2.5l.9 2.1h4.2l.9-2.1c.4-.2.8-.4 1.2-.5l1.9 1.1L20.8 17l-1.1-1.9c.2-.4.4-.8.5-1.2l2.1-.9v-4.2z"/><circle cx="12" cy="12" r="3" stroke="#7c3aed"/></svg>